# AST/ASF file generated using VICON BodyLanguage
# -----------------------------------------------
:version 1.10
:name VICON
:units
  mass 1.0
  length 0.45
  angle deg
:documentation
   .ast/.asf automatically generated from VICON data using
   VICON BodyBuilder and BodyLanguage model FoxedUp or BRILLIANT.MOD
:root
   order TX TY TZ RX RY RZ
   axis XYZ
   position 0 0 0  
   orientation 0 0 0 
:bonedata
  begin
     id 1 
     name lhipjoint
     direction 0.588788 -0.725889 0.355548 
     length 2.37778 
     axis 0 0 0  XYZ
  end
  begin
     id 2 
     name lfemur
     direction 0.34202 -0.939693 0  
     length 6.86393  
     axis 0 0 20  XYZ
    dof rx ry rz
    limits (-160.0 20.0)
           (-70.0 70.0)
           (-60.0 70.0)
  end
  begin
     id 3 
     name ltibia
     direction 0.34202 -0.939693 0   
     length 7.32851   
     axis 0 0 20   XYZ
    dof rx
    limits (-10.0 170.0)
  end
  begin
     id 4 
     name lfoot
     direction 0.0626533 -0.172138 0.983078   
     length 1.98929   
     axis -90 7.62852e-016 20   XYZ
    dof rx rz
    limits (-45.0 90.0)
           (-70.0 20.0)
  end
  begin
     id 5 
     name ltoes
     direction 1.53647e-011 -4.21734e-011 1   
     length 1.00479   
     axis -90 7.62852e-016 20   XYZ
    dof rx
    limits (-90.0 20.0)
  end
  begin
     id 6 
     name rhipjoint
     direction -0.59141 -0.724168 0.354705   
     length 2.38343  
     axis 0 0 0  XYZ 
  end
  begin
     id 7 
     name rfemur
     direction -0.34202 -0.939693 0   
     length 6.95589   
     axis 0 0 -20   XYZ
    dof rx ry rz
    limits (-160.0 20.0)
           (-70.0 70.0)
           (-70.0 60.0)
  end
  begin
     id 8 
     name rtibia
     direction -0.34202 -0.939693 0   
     length 7.32327   
     axis 0 0 -20   XYZ
    dof rx
    limits (-10.0 170.0)
 end
 begin
     id 9 
     name rfoot
     direction -0.0660461 -0.18146 0.981178   
     length 1.85272  
     axis -90 -7.62852e-016 -20   XYZ
    dof rx rz
    limits (-45.0 90.0)
           (-20.0 70.0)
  end
  begin
     id 10 
     name rtoes
     direction -1.53586e-011 -4.21988e-011 1   
     length 0.93746   
     axis -90 -7.62852e-016 -20   XYZ
    dof rx
    limits (-90.0 20.0)
  end
  begin
     id 11 
     name lowerback
     direction -0.0107982 0.991059 0.13299   
     length 1.98691   
     axis 0 0 0   XYZ
    dof rx ry rz
    limits (-20.0 45.0)
           (-30.0 30.0)
           (-30.0 30.0)
  end
  begin
     id 12 
     name upperback
     direction 0.0076296 0.999916 0.0104576   
     length 1.99501   
     axis 0 0 0   XYZ
    dof rx ry rz
    limits (-20.0 45.0)
           (-30.0 30.0)
           (-30.0 30.0)
  end
  begin
     id 13 
     name thorax
     direction 0.01176 0.998615 -0.0512909   
     length 2.03144   
     axis 0 0 0   XYZ
    dof rx ry rz
    limits (-20.0 45.0)
           (-30.0 30.0)
           (-30.0 30.0)
  end
  begin
     id 14 
     name lowerneck
     direction -0.0171909 0.999644 0.0204011   
     length 1.71818   
     axis 0 0 0   XYZ
    dof rx ry rz
    limits (-20.0 45.0)
           (-30.0 30.0)
           (-30.0 30.0)
  end
  begin
     id 15 
     name upperneck
     direction 0.0250902 0.997482 -0.0663316   
     length 1.66199   
     axis 0 0 0   XYZ
    dof rx ry rz
    limits (-20.0 45.0)
           (-30.0 30.0)
           (-30.0 30.0)
  end
  begin
     id 16
     name head
     direction 0.00881535 0.99956 -0.0283365  
     length 1.81545  
     axis 0 0 0   XYZ
    dof rx ry rz
    limits (-20.0 45.0)
           (-30.0 30.0)
           (-30.0 30.0)
  end
  begin
     id 17 
     name lclavicle
     direction 0.840411 0.486876 -0.238035  
     length 3.30409  
     axis 0 0 0   XYZ
    dof ry rz
    limits (-20.0 10.0)
           (0.0 20.0)
  end
  begin
     id 18 
     name lhumerus
     direction 1 -4.48977e-011 -5.16239e-027   
     length 4.62672   
     axis 180 -30 -90   XYZ
    dof rx ry rz
    limits (-60.0 90.0)
           (-90.0 90.0)
           (-90.0 90.0)
  end
  begin
     id 19
     name lradius
     direction 1 -4.48977e-011 -8.71171e-027   
     length 3.11018   
     axis 180 -30 -90   XYZ
    dof rx
    limits (-10.0 170.0)
  end
  begin
     id 20
     name lwrist
     direction 1 -4.48912e-011 -1.03764e-026   
     length 1.55509   
     axis 9.09556e-015 90 90   XYZ
    dof ry
    limits (-180.0 0.0)
 end
  begin
     id 21 
     name lhand
     direction 1 -4.49072e-011 -2.07528e-026   
     length 0.743834   
     axis 1.3242e-014 90 90   XYZ
    dof rx rz
    limits (-90.0 90.0)
           (-45.0 45.0)
  end
  begin
     id 22 
     name lfingers
     direction 1 -4.48909e-011 -4.15056e-026   
     length 0.599698   
     axis 2.64841e-014 90 90   XYZ
    dof rx
    limits (0.0 90.0)
  end
  begin
     id 23
     name lthumb
     direction 0.707107 -6.35013e-011 0.707107   
     length 0.86105   
     axis -90 45 2.85299e-015   XYZ
    dof rx rz
    limits (-45.0 45.0)
           (-45.0 45.0)
  end
  begin
     id 24 
     name rclavicle
     direction -0.835208 0.500237 -0.228452   
     length 3.2716  
     axis 0 0 0   XYZ 
    dof ry rz
    limits (-10.0 20.0)
           (-20.0 0.0)
  end
  begin
     id 25 
     name rhumerus
     direction -1 -4.48978e-011 -5.1953e-028  
     length 4.55919   
     axis 180 30 90   XYZ
    dof rx ry rz
    limits (-90.0 60.0)
           (-90.0 90.0)
           (-90.0 90.0)
  end
  begin
     id 26 
     name rradius
     direction -1 -4.48961e-011 -5.99546e-027   
     length 3.22748   
     axis 180 30 90   XYZ
    dof rx
    limits (-10.0 170.0)
  end
  begin
     id 27 
     name rwrist
     direction -1 -4.48986e-011 -1.03764e-026   
     length 1.61374   
     axis 9.09556e-015 -90 -90   XYZ
    dof ry
    limits (-180.0 0.0)
  end
  begin
     id 28
     name rhand
     direction -1 -4.4899e-011 -2.07528e-026   
     length 0.700882   
     axis 1.3242e-014 -90 -90   XYZ
    dof rx rz
    limits (-90.0 90.0)
           (-45.0 45.0)
  end
  begin
     id 29
     name rfingers
     direction -1 -4.48991e-011 -4.15056e-026   
     length 0.565069   
     axis 2.64841e-014 -90 -90   XYZ
    dof rx
    limits (0.0 90.0)
  end
  begin
     id 30
     name rthumb
     direction -0.707107 -6.34804e-011 0.707107   
     length 0.811329   
     axis -90 -45 -2.85299e-015   XYZ
    dof rx rz
    limits (-45.0 45.0)
           (-45.0 45.0)
  end
:hierarchy
  begin
    root lhipjoint rhipjoint lowerback
    lhipjoint lfemur
    lfemur ltibia
    ltibia lfoot
    lfoot ltoes
    rhipjoint rfemur
    rfemur rtibia
    rtibia rfoot
    rfoot rtoes
    lowerback upperback
    upperback thorax
    thorax lowerneck lclavicle rclavicle
    lowerneck upperneck
    upperneck head
    lclavicle lhumerus
    lhumerus lradius
    lradius lwrist
    lwrist lhand lthumb
    lhand lfingers
    rclavicle rhumerus
    rhumerus rradius
    rradius rwrist
    rwrist rhand rthumb
    rhand rfingers
  end

#!OML:ASF F:\VICON\USERDATA\INSTALL\SteveWalk\SteveWalk.ASF
:FULLY-SPECIFIED
:DEGREES
140
root 0.394551 16.5289 -16.2179 15.1837 1.90492 0.0314053
lowerback -13.4733 -1.86025 2.20164
upperback -2.92569 -2.89569 2.41151
thorax 4.48144 -1.41451 0.791323
lowerneck 4.49022 -10.5935 -7.94975
upperneck 2.6074 -14.4531 0.938869
head 0.73422 -7.29375 1.60637
rclavicle 1.02374e-014 7.95139e-015
rhumerus -31.6725 13.7254 -86.2583
rradius 74.234
rwrist -30.7203
rhand -22.3586 -52.406
rfingers 7.12502
rthumb 4.06248 -442.347
lclavicle 1.02374e-014 7.95139e-015
lhumerus -35.7141 11.7674 77.5281
lradius 31.3873
lwrist -3.9782
lhand -15.2629 -18.2118
lfingers 7.12502
lthumb 10.9112 11.4847
rfemur -27.9828 -4.9693 24.7299
rtibia 35.9814
rfoot -22.701 3.7465
rtoes -11.1444
lfemur -43.3256 6.89761 -21.3491
ltibia 65.4062
lfoot -7.44723 1.00202
ltoes -6.08254
141
root 0.400367 16.5204 -16.0875 15.3238 1.67794 -0.0445235
lowerback -13.5707 -1.8086 2.29146
upperback -2.97683 -2.84357 2.44304
thorax 4.47813 -1.3881 0.780505
lowerneck 4.52074 -10.5773 -7.96244
upperneck 2.63066 -14.433 0.83374
head 0.727968 -7.2841 1.57747
rclavicle 7.95139e-016 1.43125e-014
rhumerus -31.4026 14.075 -86.2589
rradius 74.2878
rwrist -30.7776
rhand -22.1032 -52.6621
rfingers 7.12502
rthumb 4.30915 -442.598
lclavicle 7.95139e-016 1.43125e-014
lhumerus -36.0524 12.1963 77.2784
lradius 31.305
lwrist -4.10875
lhand -15.2348 -18.13
lfingers 7.12502
lthumb 10.9383 11.5651
rfemur -27.5934 -5.14832 24.7837
rtibia 35.8409
rfoot -23.0116 4.13675
rtoes -10.8358
lfemur -43.9212 6.89333 -21.4588
ltibia 63.4716
lfoot -8.22849 1.9659
ltoes -7.80646
142
root 0.403137 16.5193 -15.9593 15.2951 1.30955 -0.0444513
lowerback -13.5038 -1.70336 2.2765
upperback -2.96595 -2.69672 2.37327
thorax 4.45014 -1.31596 0.742714
lowerneck 4.63379 -10.6045 -7.98236
upperneck 2.41401 -14.4844 1.01103
head 0.658879 -7.3056 1.64925
rclavicle 1.89839e-014 -7.15625e-015
rhumerus -31.1942 14.276 -86.3344
rradius 74.4021
rwrist -30.8654
rhand -21.4733 -52.7796
rfingers 7.12502
rthumb 4.91739 -442.703
lclavicle 1.89839e-014 -7.15625e-015
lhumerus -36.4109 12.3334 76.9824
lradius 31.3917
lwrist -3.97611
lhand -14.9687 -17.7124
lfingers 7.12502
lthumb 11.1949 11.9689
rfemur -27.0062 -5.20479 24.7081
rtibia 35.6648
rfoot -23.2488 4.54997
rtoes -10.1765
lfemur -44.1722 6.85633 -21.5764
ltibia 61.3047
lfoot -8.85731 2.97502
ltoes -9.40109
143
root 0.404166 16.5215 -15.8298 15.3553 1.205 0.0669538
lowerback -13.3454 -1.71924 2.08993
upperback -3.09379 -2.67998 2.33575
thorax 4.23598 -1.31225 0.818063
lowerneck 4.77671 -10.5888 -8.06852
upperneck 2.21422 -14.4841 1.22858
head 0.596062 -7.30275 1.74611
rclavicle -7.35503e-015 2.14687e-014
rhumerus -31.3034 14.5166 -86.4241
rradius 74.6311
rwrist -30.8232
rhand -21.6962 -53.2545
rfingers 7.12502
rthumb 4.70217 -443.182
lclavicle -7.35503e-015 2.14687e-014
lhumerus -36.7766 12.379 76.7227
lradius 31.2778
lwrist -3.77915
lhand -15.0107 -17.4444
lfingers 7.12502
lthumb 11.1545 12.2391
rfemur -26.3937 -5.55674 24.5901
rtibia 35.3843
rfoot -23.527 4.86767
rtoes -9.94241
lfemur -44.4665 6.49793 -21.7155
ltibia 58.9816
lfoot -9.61411 3.85195
ltoes -9.94696
144
root 0.408345 16.5248 -15.6926 15.5172 1.22759 -0.0276723
lowerback -13.4769 -1.78202 2.14734
upperback -3.12241 -2.77864 2.4105
thorax 4.27895 -1.36031 0.843948
lowerneck 4.56846 -10.5577 -8.09699
upperneck 2.24252 -14.4261 1.1992
head 0.636557 -7.27422 1.72801
rclavicle 0 -2.3059e-014
rhumerus -30.9276 14.881 -86.4391
rradius 74.5665
rwrist -30.6718
rhand -20.9263 -51.3699
rfingers 7.12502
rthumb 5.44547 -441.28
lclavicle 0 -2.3059e-014
lhumerus -36.9513 12.759 76.4951
lradius 30.9755
lwrist -3.75791
lhand -15.2542 -17.6934
lfingers 7.12502
lthumb 10.9196 12.0027
rfemur -25.8031 -6.01106 24.7232
rtibia 35.0147
rfoot -24.0184 5.18691
rtoes -10.2587
lfemur -44.7954 6.15274 -21.6183
ltibia 56.4954
lfoot -8.64055 5.42376
ltoes -4.43657
145
root 0.417269 16.5293 -15.5558 15.5416 1.04677 -0.428196
lowerback -13.6775 -1.69344 2.62583
upperback -3.00846 -2.74302 2.46107
thorax 4.48818 -1.33504 0.626011
lowerneck 4.43551 -10.58 -8.00069
upperneck 2.28309 -14.4388 1.0886
head 0.655751 -7.28001 1.66887
rclavicle -2.28602e-014 1.90833e-014
rhumerus -30.5025 15.0103 -86.5049
rradius 74.5426
rwrist -30.4636
rhand -20.4775 -50.3718
rfingers 7.12502
rthumb 5.8788 -440.27
lclavicle -2.28602e-014 1.90833e-014
lhumerus -37.1137 12.9739 76.2407
lradius 30.9192
lwrist -3.59554
lhand -15.1274 -17.5883
lfingers 7.12502
lthumb 11.0419 12.1013
rfemur -25.0626 -6.47663 25.1305
rtibia 34.5771
rfoot -24.4642 5.76213
rtoes -10.439
lfemur -44.8517 5.99478 -21.1618
ltibia 53.8649
lfoot -9.00064 6.13357
ltoes 0.0766965
146
root 0.422814 16.5368 -15.4251 15.5627 0.742042 -0.441216
lowerback -13.6352 -1.64102 2.59533
upperback -3.02361 -2.66637 2.44167
thorax 4.45001 -1.29819 0.637429
lowerneck 4.50194 -10.5867 -7.9503
upperneck 2.22611 -14.4513 1.03556
head 0.619074 -7.28443 1.65094
rclavicle 1.47598e-014 -3.26007e-014
rhumerus -30.3626 15.1713 -86.5433
rradius 74.6064
rwrist -30.2349
rhand -20.356 -50.3649
rfingers 7.12502
rthumb 5.99609 -440.26
lclavicle 1.47598e-014 -3.26007e-014
lhumerus -37.487 13.1333 76.0269
lradius 31.0756
lwrist -3.47025
lhand -15.1459 -17.1678
lfingers 7.12502
lthumb 11.024 12.5227
rfemur -24.3403 -6.68724 25.0519
rtibia 34.0811
rfoot -24.542 6.35991
rtoes -9.75037
lfemur -44.7826 5.81248 -21.1208
ltibia 51.0617
lfoot -9.54265 6.86932
ltoes 0.525114
147
root 0.428903 16.5436 -15.2914 15.6942 0.423287 -0.334142
lowerback -13.6656 -1.62871 2.43298
upperback -3.02788 -2.6271 2.4078
thorax 4.46807 -1.2805 0.698969
lowerneck 4.3377 -10.5855 -7.94126
upperneck 2.25224 -14.4356 1.04526
head 0.653949 -7.27692 1.64136
rclavicle 2.127e-014 -2.3059e-014
rhumerus -29.9209 15.4754 -86.5649
rradius 74.4352
rwrist -29.816
rhand -19.6211 -47.8985
rfingers 7.12502
rthumb 6.7056 -437.772
lclavicle 2.127e-014 -2.3059e-014
lhumerus -37.6043 13.3944 75.8003
lradius 30.9162
lwrist -3.45222
lhand -15.3685 -17.156
lfingers 7.12502
lthumb 10.8093 12.5459
rfemur -23.7123 -6.8684 24.8422
rtibia 33.5564
rfoot -24.6361 6.73826
rtoes -10.1322
lfemur -44.7582 5.67861 -21.2518
ltibia 48.1435
lfoot -9.66851 7.72263
ltoes -2.14292
148
root 0.435876 16.5531 -15.1594 15.809 0.0526823 -0.459413
lowerback -13.681 -1.57832 2.51764
upperback -3.05457 -2.57345 2.42553
thorax 4.44557 -1.25373 0.679129
lowerneck 4.16596 -10.5295 -8.02425
upperneck 2.41369 -14.3487 1.10185
head 0.740584 -7.23791 1.6564
rclavicle 2.28602e-015 5.56597e-015
rhumerus -29.6308 15.7914 -86.631
rradius 74.3095
rwrist -29.1976
rhand -19.0843 -45.3915
rfingers 7.12502
rthumb 7.2238 -435.248
lclavicle 2.28602e-015 5.56597e-015
lhumerus -37.8112 13.8012 75.4666
lradius 30.6674
lwrist -3.48034
lhand -15.5635 -17.4684
lfingers 7.12502
lthumb 10.6212 12.2431
rfemur -23.049 -6.8834 24.8479
rtibia 33.0444
rfoot -24.7701 7.10286
rtoes -10.4228
lfemur -44.6513 5.54097 -21.0308
ltibia 45.125
lfoot -10.1761 8.10222
ltoes -0.522637
149
root 0.439241 16.5608 -15.0341 16.0277 -0.392971 -0.680076
lowerback -13.6748 -1.51336 2.56976
upperback -3.17248 -2.49543 2.51368
thorax 4.32016 -1.2172 0.757498
lowerneck 4.16914 -10.5028 -8.04738
upperneck 2.42064 -14.3137 1.03975
head 0.737278 -7.22065 1.64147
rclavicle 1.38155e-014 -1.11319e-014
rhumerus -29.5891 16.1565 -86.7529
rradius 74.5298
rwrist -29.4634
rhand -19.2706 -44.8038
rfingers 7.12502
rthumb 7.04397 -434.667
lclavicle 1.38155e-014 -1.11319e-014
lhumerus -38.3312 14.3006 75.0587
lradius 30.7057
lwrist -3.56833
lhand -15.5749 -18.1583
lfingers 7.12502
lthumb 10.6103 11.5539
rfemur -22.4972 -6.75387 24.9466
rtibia 32.4993
rfoot -24.8401 7.61082
rtoes -9.87846
lfemur -44.6433 5.42929 -20.658
ltibia 42.0372
lfoot -10.4673 8.44155
ltoes -0.0499845
150
root 0.443996 16.5632 -14.9028 16.1644 -0.867846 -0.947142
lowerback -13.6732 -1.34954 2.71719
upperback -3.20545 -2.29943 2.5312
thorax 4.27998 -1.11986 0.726783
lowerneck 4.31259 -10.554 -7.84291
upperneck 2.1744 -14.3884 0.983408
head 0.618701 -7.25064 1.60934
rclavicle -3.47873e-015 -1.27222e-014
rhumerus -29.2865 16.2042 -86.7465
rradius 74.5742
rwrist -29.8496
rhand -19.1254 -46.3052
rfingers 7.12502
rthumb 7.18408 -436.163
lclavicle -3.47873e-015 -1.27222e-014
lhumerus -38.5141 14.4354 74.8001
lradius 30.5912
lwrist -3.47631
lhand -15.3856 -18.6417
lfingers 7.12502
lthumb 10.7928 11.061
rfemur -21.8385 -6.67074 25.0835
rtibia 31.8931
rfoot -24.8749 8.08023
rtoes -9.86549
lfemur -44.4677 5.33479 -20.223
ltibia 38.9349
lfoot -10.4229 8.96642
ltoes -2.69805
151
root 0.449261 16.573 -14.7631 16.3049 -1.2583 -0.960089
lowerback -13.938 -1.28425 2.63869
upperback -3.1691 -2.21375 2.49747
thorax 4.46479 -1.07605 0.743448
lowerneck 4.60737 -10.5051 -7.81727
upperneck 1.95868 -14.3499 1.10491
head 0.507635 -7.22707 1.67011
rclavicle -1.87355e-014 -1.27222e-014
rhumerus -28.9578 16.5016 -86.7911
rradius 74.5736
rwrist -29.8612
rhand -19.4277 -47.283
rfingers 7.12502
rthumb 6.89226 -437.151
lclavicle -1.87355e-014 -1.27222e-014
lhumerus -38.6603 14.6062 74.5556
lradius 30.4611
lwrist -3.46064
lhand -15.4346 -18.5519
lfingers 7.12502
lthumb 10.7455 11.1533
rfemur -21.213 -6.70131 24.9525
rtibia 31.325
rfoot -24.7973 8.54473
rtoes -9.85301
lfemur -44.1356 5.03437 -19.9666
ltibia 35.6927
lfoot -10.6986 9.35343
ltoes -4.31797
152
root 0.453261 16.5888 -14.632 16.4945 -1.40644 -0.9082
lowerback -14.1217 -1.37181 2.49041
upperback -3.22603 -2.31575 2.52339
thorax 4.51167 -1.12788 0.832547
lowerneck 4.57292 -10.3838 -7.88393
upperneck 2.09334 -14.1866 1.05189
head 0.54905 -7.14877 1.65947
rclavicle 1.0635e-014 -1.82882e-014
rhumerus -28.8338 17.0074 -86.9309
rradius 74.7495
rwrist -29.8191
rhand -19.1677 -45.4929
rfingers 7.12502
rthumb 7.14325 -435.352
lclavicle 1.0635e-014 -1.82882e-014
lhumerus -39.1082 14.827 74.3033
lradius 30.5976
lwrist -3.4519
lhand -15.4681 -18.0282
lfingers 7.12502
lthumb 10.7132 11.6786
rfemur -20.6253 -6.92884 24.8255
rtibia 30.6824
rfoot -24.8164 8.95493
rtoes -9.73681
lfemur -43.8952 4.65635 -19.7576
ltibia 32.536
lfoot -11.2799 9.20337
ltoes -2.29509
153
root 0.461901 16.5854 -14.5038 16.6226 -1.78291 -0.966849
lowerback -14.0405 -1.36242 2.47737
upperback -3.30023 -2.29638 2.5298
thorax 4.39004 -1.12039 0.852908
lowerneck 4.11625 -10.3082 -7.88501
upperneck 2.30898 -14.045 0.963549
head 0.679555 -7.08232 1.59854
rclavicle 1.10822e-014 1.82882e-014
rhumerus -28.6706 17.3365 -87.0803
rradius 74.9287
rwrist -30.0406
rhand -19.0683 -44.9033
rfingers 7.12502
rthumb 7.23925 -434.759
lclavicle 1.10822e-014 1.82882e-014
lhumerus -39.4273 15.1245 73.9923
lradius 30.5684
lwrist -3.50741
lhand -15.4207 -17.7847
lfingers 7.12502
lthumb 10.759 11.9197
rfemur -19.9699 -7.03065 24.7334
rtibia 29.9904
rfoot -24.6644 9.60268
rtoes -9.20345
lfemur -43.9078 4.58385 -19.6252
ltibia 29.4604
lfoot -9.82571 9.86392
ltoes -9.27365
154
root 0.473977 16.5991 -14.3672 16.6735 -2.36138 -1.16754
lowerback -14.0059 -1.24634 2.63908
upperback -3.32067 -2.16577 2.55191
thorax 4.34451 -1.05537 0.808905
lowerneck 3.93268 -10.2299 -8.04495
upperneck 2.3595 -13.9317 1.04284
head 0.739005 -7.0282 1.63682
rclavicle 2.05742e-014 -7.15625e-015
rhumerus -28.5132 17.7684 -87.1514
rradius 75.1857
rwrist -30.3087
rhand -19.4872 -46.4885
rfingers 7.12502
rthumb 6.8349 -436.358
lclavicle 2.05742e-014 -7.15625e-015
lhumerus -39.5408 15.3918 73.7304
lradius 30.3018
lwrist -3.56882
lhand -15.4487 -18.0279
lfingers 7.12502
lthumb 10.7319 11.6779
rfemur -19.1155 -7.14549 24.705
rtibia 29.2133
rfoot -24.4732 10.4649
rtoes -8.75656
lfemur -43.5214 4.63578 -19.2694
ltibia 26.6753
lfoot -10.5552 9.70968
ltoes -6.66802
